<svg width="823" height="870" viewBox="0 0 823 870" fill="none" xmlns="http://www.w3.org/2000/svg">
<path d="M435 0C472.555 0 503 89.7669 503 200.5C503 311.233 472.555 401 435 401C397.445 401 367 311.233 367 200.5C367 166.909 369.802 135.248 374.754 107.437C219.602 135.788 102 271.66 102 435C102 469.412 107.22 502.605 116.911 533.83C138.121 516.189 163.436 498.533 191.638 482.25C287.535 426.883 380.499 408.366 399.276 440.89C418.054 473.414 355.535 544.663 259.638 600.029C229.77 617.274 200.186 630.943 173.04 640.609C234.008 718.178 328.686 768 435 768C542.189 768 637.546 717.353 698.454 638.688C671.248 629.017 641.586 615.32 611.638 598.029C515.74 542.663 453.222 471.414 472 438.89C490.778 406.366 583.74 424.884 679.638 480.25C775.535 535.616 838.054 606.866 819.276 639.39C818.915 640.016 818.525 640.623 818.108 641.212C744.632 777.433 600.627 870 435 870C194.756 870 0 675.244 0 435C0 194.756 194.756 0 435 0Z" fill="url(#paint0_radial_1_16)"/>
<defs>
<radialGradient id="paint0_radial_1_16" cx="0" cy="0" r="1" gradientUnits="userSpaceOnUse" gradientTransform="translate(432.5 435) rotate(92.7897) scale(435.516 411.792)">
<stop stop-color="#FFCC00"/>
<stop offset="1" stop-color="#FF9100"/>
</radialGradient>
</defs>
</svg>
